<svg width="22" height="22" viewBox="0 0 22 22" fill="none" xmlns="http://www.w3.org/2000/svg">
<g clip-path="url(#clip0_1895_43689)">
<path d="M11 22.0019C17.0751 22.0019 22 17.0771 22 11.0019C22 4.92682 17.0751 0.00195312 11 0.00195312C4.92487 0.00195312 0 4.92682 0 11.0019C0 17.0771 4.92487 22.0019 11 22.0019Z" fill="white"/>
<path d="M15.2824 14.1816L15.7697 11.0011H12.7192V8.93757C12.7192 8.06821 13.1446 7.21897 14.512 7.21897H15.8996V4.51189C15.8996 4.51189 14.6404 4.29688 13.437 4.29688C10.9248 4.29688 9.28198 5.81902 9.28198 8.57714V11.0011H6.48828V14.1816H9.28198V21.8681C9.84196 21.9563 10.4159 22.0011 11.0006 22.0011C11.5853 22.0011 12.1592 21.9547 12.7192 21.8681V14.1816H15.2824Z" fill="#151824"/>
</g>
<defs>
<clipPath id="clip0_1895_43689">
<rect width="22" height="22" fill="white"/>
</clipPath>
</defs>
</svg>
