<svg width="41" height="40" viewBox="0 0 41 40" fill="none" xmlns="http://www.w3.org/2000/svg">
<path fill-rule="evenodd" clip-rule="evenodd" d="M17.8922 28.633V28.8663C18.0181 29.4007 18.1853 29.9245 18.3922 30.433H5.94219C5.5561 30.4286 5.18731 30.2722 4.91585 29.9976C4.6444 29.723 4.49216 29.3525 4.49219 28.9663V6.28301C4.49219 5.89844 4.64495 5.52963 4.91688 5.2577C5.18881 4.98577 5.55762 4.83301 5.94219 4.83301H28.7589C29.145 4.83298 29.5155 4.98522 29.7901 5.25668C30.0647 5.52813 30.2211 5.89692 30.2255 6.28301V9.48301C30.2243 9.5739 30.2035 9.66346 30.1645 9.74559C30.1256 9.82773 30.0694 9.90052 29.9999 9.95902C29.9303 10.0175 29.8489 10.0604 29.7613 10.0846C29.6737 10.1089 29.5819 10.114 29.4922 10.0997C28.6862 9.95676 27.8555 10.0981 27.1422 10.4997C26.3187 10.9568 25.6353 11.6297 25.1654 12.446C24.6956 13.2624 24.4571 14.1913 24.4755 15.133V16.1997C22.8464 16.8799 21.4056 17.9433 20.2755 19.2997H11.9422C11.7376 19.2778 11.5307 19.2992 11.3349 19.3625C11.1391 19.4258 10.9588 19.5296 10.8057 19.6671C10.6527 19.8047 10.5303 19.9729 10.4465 20.1608C10.3627 20.3488 10.3194 20.5522 10.3194 20.758C10.3194 20.9638 10.3627 21.1673 10.4465 21.3552C10.5303 21.5431 10.6527 21.7114 10.8057 21.8489C10.9588 21.9864 11.1391 22.0902 11.3349 22.1535C11.5307 22.2169 11.7376 22.2382 11.9422 22.2163H18.6089C18.0206 23.568 17.7143 25.0255 17.7089 26.4997C17.6999 26.6217 17.6999 26.7443 17.7089 26.8663C17.6928 26.9992 17.6928 27.1335 17.7089 27.2663C17.7415 27.7253 17.8027 28.1817 17.8922 28.633ZM19.6755 13.5497H11.5089C10.9422 13.5497 10.4255 14.183 10.4255 14.9997C10.4255 15.8163 10.9089 16.4663 11.5089 16.4663H19.6755C20.2755 16.4663 20.7422 15.7997 20.7422 14.9997C20.7422 14.1997 20.2755 13.5497 19.6755 13.5497ZM34.6254 20.55C34.3157 20.263 33.9444 20.0507 33.54 19.9294C33.1355 19.808 32.7087 19.7809 32.2921 19.85C32.0591 19.8677 31.8251 19.8677 31.5921 19.85C31.0088 19.85 30.2588 19.5833 30.2754 19.0333V14.4167C30.2369 14.0568 30.0667 13.7238 29.7974 13.4819C29.5282 13.24 29.1791 13.1061 28.8171 13.1061C28.4551 13.1061 28.106 13.24 27.8368 13.4819C27.5675 13.7238 27.3973 14.0568 27.3588 14.4167V18.3333C25.4425 18.6759 23.7066 19.6785 22.4524 21.1672C21.1981 22.6559 20.5045 24.5367 20.4921 26.4833V26.75C20.4838 26.8498 20.4838 26.9502 20.4921 27.05C20.5097 27.3864 20.5543 27.7208 20.6254 28.05V28.2167C20.8927 29.4914 21.4551 30.6858 22.2674 31.7039C23.0797 32.7221 24.1194 33.5356 25.303 34.0793C26.4866 34.623 27.7811 34.8816 29.0828 34.8345C30.3844 34.7874 31.6569 34.4359 32.7981 33.8081C33.9393 33.1803 34.9174 32.2937 35.6541 31.2195C36.3907 30.1454 36.8653 28.9135 37.0397 27.6227C37.2141 26.332 37.0836 25.0183 36.6585 23.7871C36.2335 22.5559 35.5257 21.4415 34.5921 20.5333L34.6254 20.55ZM35.7427 15.3328C35.7351 15.1834 35.6734 15.0418 35.5692 14.9345C35.4649 14.8272 35.3252 14.7614 35.1761 14.7495C34.6684 14.6437 34.1443 14.6438 33.6367 14.7499C33.1291 14.8561 32.6488 15.0658 32.2261 15.3662C31.9167 15.6652 31.6737 16.0261 31.5129 16.4252C31.3521 16.8243 31.2771 17.2528 31.2927 17.6828V17.8662V18.0328C31.3126 18.2573 31.4129 18.467 31.5753 18.6232C31.7376 18.7794 31.951 18.8716 32.1761 18.8828C32.3758 18.8985 32.5764 18.8985 32.7761 18.8828C33.537 18.9156 34.2799 18.646 34.8427 18.1328C35.1721 17.7498 35.4214 17.3048 35.5759 16.8239C35.7305 16.343 35.7872 15.836 35.7427 15.3328Z" fill="white"/>
</svg>
