<svg width="22" height="22" viewBox="0 0 22 22" fill="none" xmlns="http://www.w3.org/2000/svg">
<g clip-path="url(#clip0_1895_43685)">
<path d="M11.0021 21.9065C17.0266 21.9065 21.9104 17.0227 21.9104 10.9982C21.9104 4.97367 17.0266 0.0898438 11.0021 0.0898438C4.97758 0.0898438 0.09375 4.97367 0.09375 10.9982C0.09375 17.0227 4.97758 21.9065 11.0021 21.9065Z" fill="white"/>
<path d="M11.0027 4.52734C9.24634 4.52734 9.02268 4.53468 8.33334 4.56768C7.64401 4.60068 7.17468 4.70701 6.76401 4.86834C6.33868 5.03334 5.97568 5.25334 5.61634 5.61634C5.25701 5.97568 5.03701 6.33868 4.86834 6.76401C4.70701 7.17468 4.59701 7.64768 4.56768 8.33334C4.53834 9.02268 4.52734 9.24268 4.52734 11.0027C4.52734 12.759 4.53468 12.979 4.56768 13.672C4.60068 14.3613 4.70701 14.8307 4.86834 15.2413C5.03334 15.6667 5.25334 16.0297 5.61634 16.389C5.97568 16.7483 6.33868 16.972 6.76401 17.137C7.17468 17.2983 7.64768 17.4047 8.33334 17.4377C9.02268 17.4707 9.24268 17.478 11.0027 17.478C12.759 17.478 12.979 17.4707 13.672 17.4377C14.3613 17.4047 14.8307 17.2983 15.245 17.137C15.6703 16.972 16.0297 16.7483 16.389 16.389C16.7483 16.0297 16.9683 15.6667 17.137 15.2413C17.2947 14.8307 17.4047 14.3613 17.4377 13.672C17.467 12.9827 17.478 12.7627 17.478 11.0027C17.478 9.24635 17.4707 9.02635 17.4377 8.33334C17.4047 7.64401 17.2947 7.17468 17.137 6.76401C16.972 6.33868 16.7483 5.97568 16.389 5.61634C16.0297 5.25701 15.6703 5.03701 15.2413 4.86834C14.827 4.70701 14.3577 4.60068 13.6683 4.56768C12.979 4.53468 12.759 4.52734 11.0027 4.52734ZM10.4233 5.69334C10.5957 5.69334 10.7863 5.69334 11.0027 5.69334C12.7297 5.69334 12.935 5.70068 13.617 5.73001C14.2477 5.75934 14.5887 5.86568 14.8197 5.95368C15.1203 6.07101 15.3367 6.21034 15.564 6.43768C15.7913 6.66501 15.9307 6.88134 16.048 7.18201C16.136 7.40934 16.2423 7.75401 16.2717 8.38468C16.301 9.06668 16.3083 9.27201 16.3083 10.999C16.3083 12.726 16.301 12.9313 16.2717 13.6133C16.2423 14.244 16.136 14.585 16.048 14.816C15.9307 15.1167 15.7913 15.333 15.564 15.5603C15.3367 15.7877 15.124 15.927 14.8197 16.0443C14.5923 16.1323 14.2477 16.2387 13.617 16.268C12.935 16.2973 12.7297 16.3047 11.0027 16.3047C9.27568 16.3047 9.07034 16.2973 8.38834 16.268C7.75768 16.2387 7.41668 16.1323 7.18568 16.0443C6.88501 15.927 6.66868 15.7877 6.44134 15.5603C6.21401 15.333 6.07468 15.1167 5.95734 14.816C5.86934 14.5887 5.76301 14.244 5.73368 13.6133C5.70434 12.9313 5.69701 12.726 5.69701 10.999C5.69701 9.27201 5.70434 9.06668 5.73368 8.38468C5.76301 7.75401 5.86934 7.41301 5.95734 7.18201C6.07468 6.88134 6.21401 6.66501 6.44134 6.43768C6.66868 6.21034 6.88501 6.07101 7.18568 5.95368C7.41301 5.86568 7.75768 5.75934 8.38834 5.73001C8.98601 5.70068 9.21701 5.69334 10.4233 5.69334ZM14.4567 6.76768C14.0277 6.76768 13.6793 7.11601 13.6793 7.54501C13.6793 7.97401 14.0277 8.32234 14.4567 8.32234C14.8857 8.32234 15.234 7.97401 15.234 7.54501C15.234 7.11601 14.8857 6.76768 14.4567 6.76768ZM11.0027 7.67701C9.16568 7.67701 7.68068 9.16568 7.68068 10.999C7.68068 12.836 9.16934 14.321 11.0027 14.321C12.8397 14.321 14.3247 12.8323 14.3247 10.999C14.3247 9.16201 12.8397 7.67701 11.0027 7.67701ZM11.0027 8.84301C12.1943 8.84301 13.1587 9.80734 13.1587 10.999C13.1587 12.1907 12.1943 13.155 11.0027 13.155C9.81101 13.155 8.84668 12.1907 8.84668 10.999C8.84668 9.80734 9.81101 8.84301 11.0027 8.84301Z" fill="#151824"/>
</g>
<defs>
<clipPath id="clip0_1895_43685">
<rect width="22" height="22" fill="white"/>
</clipPath>
</defs>
</svg>
