<svg width="22" height="22" viewBox="0 0 22 22" fill="none" xmlns="http://www.w3.org/2000/svg">
<g clip-path="url(#clip0_1895_43698)">
<path fill-rule="evenodd" clip-rule="evenodd" d="M11 22C17.0751 22 22 17.0751 22 11C22 4.92487 17.0751 0 11 0C4.92487 0 0 4.92487 0 11C0 17.0751 4.92487 22 11 22Z" fill="white"/>
<path fill-rule="evenodd" clip-rule="evenodd" d="M18.0265 17.4171H15.2641V12.7121C15.2641 11.4221 14.7739 10.7012 13.7529 10.7012C12.6421 10.7012 12.0618 11.4514 12.0618 12.7121V17.4171H9.39962V8.45414H12.0618V9.66145C12.0618 9.66145 12.8623 8.18031 14.7643 8.18031C16.6654 8.18031 18.0265 9.34125 18.0265 11.7423V17.4171ZM6.22364 7.28051C5.31684 7.28051 4.58203 6.53994 4.58203 5.62658C4.58203 4.71323 5.31684 3.97266 6.22364 3.97266C7.13044 3.97266 7.8648 4.71323 7.8648 5.62658C7.8648 6.53994 7.13044 7.28051 6.22364 7.28051ZM4.84899 17.4171H7.62497V8.45414H4.84899V17.4171Z" fill="#151824"/>
</g>
<defs>
<clipPath id="clip0_1895_43698">
<rect width="22" height="22" fill="white"/>
</clipPath>
</defs>
</svg>
