<svg width="22" height="22" viewBox="0 0 22 22" fill="none" xmlns="http://www.w3.org/2000/svg">
<g clip-path="url(#clip0_1895_43692)">
<path fill-rule="evenodd" clip-rule="evenodd" d="M11 22C17.0751 22 22 17.0751 22 11C22 4.92487 17.0751 0 11 0C4.92487 0 0 4.92487 0 11C0 17.0751 4.92487 22 11 22Z" fill="white"/>
<path d="M17.3287 7.97086C17.1835 7.43168 16.7584 7.00655 16.2192 6.86139C15.2341 6.5918 11.2939 6.5918 11.2939 6.5918C11.2939 6.5918 7.35375 6.5918 6.3687 6.85102C5.83988 6.99619 5.40439 7.43168 5.25922 7.97086C5 8.95591 5 10.9986 5 10.9986C5 10.9986 5 13.0516 5.25922 14.0263C5.40439 14.5655 5.82951 14.9906 6.3687 15.1358C7.36412 15.4054 11.2939 15.4054 11.2939 15.4054C11.2939 15.4054 15.2341 15.4054 16.2192 15.1462C16.7584 15.001 17.1835 14.5759 17.3287 14.0367C17.5879 13.0516 17.5879 11.009 17.5879 11.009C17.5879 11.009 17.5983 8.95591 17.3287 7.97086Z" fill="#151824"/>
<path d="M13.3156 10.9985L10.0391 9.11133V12.8856L13.3156 10.9985Z" fill="white"/>
</g>
<defs>
<clipPath id="clip0_1895_43692">
<rect width="22" height="22" fill="white"/>
</clipPath>
</defs>
</svg>
